PathFileType	4	(X/Y/Z)	c:/Users/goper/Files/vsCode/490R/osim_files/C11/C11_Static01.trc
DataRate	CameraRate	NumFrames	NumMarkers	Units                	OrigDataRate	OrigDataStartFrame	OrigNumFrames
120.00	120.00	8	36	mm	120.0	817	1089
                Frame#	Time	LPSI			LASI			LTH1			LTH2			LTH3			LTH4			LLFE			LMFE			LSH1			LSH2			LSH3			LSH4			LLMA			LMMA			LCAL			LMTP			LTOE			LMTP			RPSI			RASI			RTH1			RTH2			RTH3			RTH4			RLFE			RMFE			RSH1			RSH2			RSH3			RSH4			RLMA			RMMA			RCAL			RMTP			RTOE			RMTP		
		X1	Y1	Z1	X2	Y2	Z2	X3	Y3	Z3	X4	Y4	Z4	X5	Y5	Z5	X6	Y6	Z6	X7	Y7	Z7	X8	Y8	Z8	X9	Y9	Z9	X10	Y10	Z10	X11	Y11	Z11	X12	Y12	Z12	X13	Y13	Z13	X14	Y14	Z14	X15	Y15	Z15	X16	Y16	Z16	X17	Y17	Z17	X18	Y18	Z18	X19	Y19	Z19	X20	Y20	Z20	X21	Y21	Z21	X22	Y22	Z22	X23	Y23	Z23	X24	Y24	Z24	X25	Y25	Z25	X26	Y26	Z26	X27	Y27	Z27	X28	Y28	Z28	X29	Y29	Z29	X30	Y30	Z30	X31	Y31	Z31	X32	Y32	Z32	X33	Y33	Z33	X34	Y34	Z34	X35	Y35	Z35	X36	Y36	Z36

817	6.80000	-372.86191	1018.39856	479.56995	-200.18303	1007.51801	399.93024	-321.78360	644.56451	312.26700	-318.68982	597.05743	309.55228	-261.13870	643.56329	307.25842	-267.07541	597.08063	308.61209	-317.70355	516.17749	304.30569	-296.81555	501.65765	412.97769	-377.24609	414.02664	290.42349	-377.65140	369.37827	286.33170	-316.30698	409.78702	278.80475	-324.88062	365.72198	276.42117	-352.88437	96.88862	311.26663	-315.02042	110.30627	402.50040	-405.15640	58.84963	370.18710	-243.93239	40.30337	268.19092	-165.65613	57.51540	329.97711	-201.84007	45.58744	379.50046	-363.12912	1031.43518	563.30096	-194.79974	1000.51666	630.40167	-296.67160	632.30090	705.85388	-292.46414	588.32593	705.67255	-234.46339	630.44977	697.02228	-240.28664	587.87335	699.66693	-274.83054	520.33118	698.87585	-301.40753	487.84564	589.85638	-345.26575	415.11136	727.56305	-340.59082	369.24460	730.40118	-283.39655	412.98495	721.82153	-287.67792	366.05432	727.46808	-326.79578	98.58024	711.56567	-298.58734	105.23407	617.50958	-387.58554	58.81292	664.33917	-171.38193	48.83116	643.09320	-168.03992	61.69626	692.53735	-209.21753	38.82276	753.76721
818	6.80833	-372.90417	1018.41113	479.55560	-200.23277	1007.50403	399.93610	-321.83258	644.53998	312.27148	-318.71814	597.03296	309.54770	-261.17126	643.56506	307.25668	-267.11572	597.07837	308.62094	-317.74454	516.15869	304.31647	-296.82849	501.69235	412.97397	-377.25040	414.01245	290.40265	-377.67105	369.37933	286.32422	-316.33228	409.79526	278.79358	-324.90131	365.71967	276.41312	-352.89780	96.88354	311.26251	-315.03021	110.30526	402.50259	-405.23105	58.86618	370.15887	-243.94102	40.28526	268.18155	-165.67270	57.51842	329.97299	-201.87410	45.57646	379.49194	-363.16190	1031.41760	563.29932	-194.80501	1000.50708	630.39545	-296.70889	632.31580	705.84827	-292.49374	588.34027	705.67517	-234.47734	630.44910	697.01233	-240.29509	587.88019	699.66663	-274.83554	520.34863	698.88953	-301.41763	487.83588	589.85645	-345.30209	415.10501	727.55627	-340.63251	369.21097	730.39374	-283.41037	412.97992	721.84753	-287.69522	366.06262	727.47687	-326.84723	98.56454	711.54156	-298.58911	105.23589	617.51324	-387.58398	58.81313	664.32074	-171.38580	48.82748	643.10156	-168.04572	61.68616	692.53967	-209.21149	38.81867	753.76154
819	6.81667	-372.87808	1018.38672	479.59299	-200.24954	1007.50317	399.91260	-321.85339	644.53082	312.29306	-318.71777	597.03107	309.55734	-261.18634	643.57446	307.25745	-267.11832	597.08807	308.62869	-317.76358	516.17236	304.32404	-296.84897	501.69034	412.99719	-377.24603	413.99155	290.42459	-377.66782	369.36758	286.33920	-316.35648	409.79706	278.81027	-324.90765	365.72714	276.43097	-352.89551	96.89803	311.26346	-315.06152	110.29288	402.54608	-405.18329	58.84941	370.17587	-244.06451	40.09405	268.33246	-165.69986	57.47886	329.99918	-201.91154	45.55212	379.53366	-363.16650	1031.41028	563.35480	-194.84029	1000.48248	630.40942	-296.69873	632.30371	705.88739	-292.49594	588.32428	705.72058	-234.53854	630.41125	697.06470	-240.31145	587.87628	699.70520	-274.91904	520.32300	698.91913	-301.40839	487.86191	589.86420	-345.30765	415.09695	727.59680	-340.63931	369.17575	730.43530	-283.46725	412.92505	721.89056	-287.71423	366.03885	727.51910	-326.81299	98.52643	711.58514	-298.57980	105.23676	617.51581	-387.59283	58.78334	664.35938	-171.38721	48.81289	643.12921	-168.09517	61.63972	692.58167	-209.26573	38.79528	753.79218
820	6.82500	-372.89902	1018.37231	479.63562	-200.27705	1007.54126	399.91617	-321.85669	644.53247	312.29269	-318.75549	597.04327	309.56424	-261.22775	643.58459	307.26300	-267.12326	597.12390	308.63110	-317.78082	516.20642	304.32236	-296.82840	501.71292	413.03778	-377.28632	413.97684	290.48331	-377.69879	369.34332	286.37439	-316.36118	409.81836	278.80399	-324.93274	365.75027	276.42734	-352.91324	96.91126	311.27869	-315.07068	110.26813	402.54416	-405.12659	58.78471	370.20227	-244.06503	40.11034	268.33963	-165.70338	57.48305	330.02588	-201.93828	45.52901	379.56305	-363.14856	1031.34680	563.39325	-194.83119	1000.48358	630.42468	-296.69800	632.29352	705.90704	-292.52829	588.30469	705.73657	-234.52386	630.40588	697.10760	-240.31648	587.85419	699.72809	-274.89117	520.31128	698.96094	-301.44513	487.87860	589.86871	-345.31427	415.09882	727.62939	-340.59848	369.12189	730.47070	-283.51193	412.89948	721.90454	-287.72260	366.04135	727.54437	-326.79480	98.44161	711.60107	-298.58920	105.25237	617.52203	-387.55087	58.72416	664.40472	-171.39801	48.81146	643.16132	-168.10712	61.62749	692.61371	-209.25156	38.79716	753.80249
821	6.83333	-372.95288	1018.35785	479.65164	-200.32857	1007.58331	399.90125	-321.88916	644.54034	312.29752	-318.77676	597.04071	309.56131	-261.25955	643.62109	307.27344	-267.17538	597.14777	308.63446	-317.82828	516.23297	304.32956	-296.96585	501.70523	413.00818	-377.30905	413.98676	290.49585	-377.73260	369.34595	286.40247	-316.39862	409.84256	278.81732	-324.96036	365.77991	276.42892	-352.95486	96.94182	311.27298	-315.12814	110.24995	402.56497	-405.11908	58.76328	370.22043	-244.08327	40.13760	268.34552	-165.73906	57.46530	330.05423	-201.97366	45.50831	379.59833	-363.15872	1031.30664	563.44440	-194.88498	1000.47754	630.42462	-296.75449	632.27350	705.91858	-292.55630	588.30206	705.75183	-234.55382	630.39044	697.12976	-240.37592	587.83063	699.75909	-274.97012	520.26587	698.98224	-301.44907	487.91617	589.86932	-345.34277	415.09552	727.64838	-340.61279	369.09860	730.48413	-283.54297	412.90048	721.92432	-287.75797	366.01358	727.55725	-326.85382	98.39070	711.61011	-298.59494	105.28412	617.52820	-387.54373	58.72158	664.47620	-171.43938	48.79225	643.19116	-168.15366	61.62668	692.65265	-209.30814	38.78968	753.82764
822	6.84167	-372.96750	1018.40155	479.67737	-200.36122	1007.63727	399.87210	-321.90607	644.54871	312.28183	-318.77887	597.07166	309.56577	-261.28348	643.66467	307.27390	-267.20212	597.18152	308.61664	-317.83182	516.27008	304.32825	-296.98294	501.72989	413.05743	-377.30820	414.01385	290.51401	-377.73001	369.37991	286.40472	-316.42859	409.88873	278.81262	-324.98517	365.82236	276.43030	-352.94110	96.98427	311.27286	-315.13647	110.31004	402.55994	-405.08307	58.82714	370.25314	-244.08704	40.19481	268.34024	-165.77931	57.50593	330.03818	-201.99358	45.55304	379.59433	-363.19348	1031.36365	563.48138	-194.90541	1000.49054	630.40289	-296.77234	632.35040	705.91278	-292.58630	588.35431	705.75409	-234.57231	630.42566	697.13190	-240.36026	587.88068	699.74707	-275.00851	520.34509	698.97705	-301.46487	487.95157	589.85547	-345.38159	415.15369	727.65106	-340.63986	369.18893	730.48383	-283.55383	412.94260	721.92261	-287.78717	366.05865	727.56354	-326.87515	98.50304	711.63757	-298.59634	105.33029	617.51666	-387.58353	58.77444	664.47729	-171.47266	48.84010	643.17462	-168.19534	61.65529	692.64862	-209.30951	38.84434	753.83118
823	6.85000	-372.92279	1018.40729	479.71255	-200.42918	1007.62250	399.83722	-321.92258	644.55652	312.28357	-318.78870	597.08087	309.56580	-261.29700	643.67346	307.26907	-267.23602	597.18353	308.61981	-317.84937	516.29932	304.32678	-296.95938	501.77527	413.04938	-377.31674	414.05368	290.49753	-377.72830	369.38571	286.39325	-316.43768	409.89429	278.81949	-325.00485	365.82742	276.44543	-352.94119	97.00864	311.26025	-315.09729	110.36435	402.56204	-405.07254	58.83018	370.24170	-244.06276	40.21869	268.34058	-165.75110	57.54103	330.01602	-201.94548	45.62489	379.55054	-363.14462	1031.40442	563.49347	-194.84137	1000.52966	630.36261	-296.72409	632.39502	705.91602	-292.53369	588.41479	705.75690	-234.52097	630.48340	697.07623	-240.29979	587.92212	699.72192	-274.94733	520.41656	698.95605	-301.98898	487.98053	589.85016	-345.34967	415.18576	727.61749	-340.58987	369.20331	730.48328	-283.50180	412.99542	721.89655	-287.74933	366.10098	727.54150	-326.78891	98.54234	711.62360	-298.58264	105.34970	617.51959	-387.55649	58.83434	664.42902	-171.45840	48.89595	643.13977	-168.15427	61.69321	692.62231	-209.29062	38.88353	753.81976
824	6.85833	-372.96661	1018.44110	479.69958	-200.45615	1007.60913	399.80511	-321.93738	644.56445	312.28088	-318.81851	597.07269	309.56366	-261.31125	643.67041	307.25583	-267.26596	597.16357	308.60703	-317.85510	516.31348	304.31458	-297.00156	501.80640	413.01843	-377.35751	414.04837	290.48996	-377.72604	369.38846	286.36795	-316.43591	409.90271	278.81842	-325.02097	365.82907	276.42953	-352.94724	97.01800	311.26666	-315.07104	110.39355	402.52890	-405.13293	58.88184	370.21243	-244.06268	40.21255	268.33875	-165.71890	57.54979	329.97424	-201.94237	45.63602	379.53296	-363.12146	1031.44824	563.48047	-194.79617	1000.54742	630.31689	-296.65753	632.42200	705.90570	-292.46814	588.44550	705.73755	-234.48505	630.49750	697.04932	-240.27359	587.94525	699.69885	-274.89471	520.43835	698.94952	-301.46078	487.98105	589.85327	-345.30884	415.20605	727.60754	-340.54001	369.25320	730.48175	-283.46747	413.02536	721.87219	-287.72083	366.12848	727.52539	-326.76755	98.58523	711.62347	-298.57727	105.34277	617.51721	-387.56912	58.86404	664.37292	-171.43828	48.91304	643.11810	-168.09918	61.74200	692.58911	-209.27097	38.89511	753.80878
